<svg width="80" height="80" viewBox="0 0 80 80" fill="none" xmlns="http://www.w3.org/2000/svg">
<g id="technology/computer-laptop">
<g id="Union">
<path fill-rule="evenodd" clip-rule="evenodd" d="M8 16V58H72V16H8ZM70 18H10V56H70V18Z" fill="black"/>
<path fill-rule="evenodd" clip-rule="evenodd" d="M4 17C4 14.2386 6.23858 12 9 12H71C73.7614 12 76 14.2386 76 17V60H79C79.5523 60 80 60.4477 80 61V62C80 65.3137 77.3137 68 74 68H6C2.68629 68 0 65.3137 0 62V61C0 60.4477 0.447715 60 1 60H4V17ZM2 62C2 64.2091 3.79086 66 6 66H74C76.2091 66 78 64.2091 78 62H49.4649C48.7733 63.1956 47.4806 64 46 64H34C32.5194 64 31.2267 63.1956 30.5351 62H2ZM74 60H48C48 61.1046 47.1046 62 46 62H34C32.8954 62 32 61.1046 32 60H6V17C6 15.3431 7.34315 14 9 14H71C72.6569 14 74 15.3431 74 17V60Z" fill="black"/>
</g>
</g>
</svg>
