<svg width="32" height="33" viewBox="0 0 32 33" fill="none" xmlns="http://www.w3.org/2000/svg">
<g id="media/envelope">
<path id="Union" fill-rule="evenodd" clip-rule="evenodd" d="M0 5.30005V24.5C0 26.2674 1.43269 27.7001 3.2 27.7001H28.8C30.5673 27.7001 32 26.2674 32 24.5V5.30005H0ZM31.2 6.10005H0.8V7.90309L16 19.5954L31.2 7.90309V6.10005ZM0.8 24.5V8.91239L12.2696 17.7352L1.43263 26.1238C1.03982 25.6964 0.8 25.1262 0.8 24.5ZM2.08853 26.6277C2.42083 26.8017 2.79893 26.9001 3.2 26.9001H28.8C29.2011 26.9001 29.5792 26.8017 29.9115 26.6277L19.0749 18.2394L16 20.6047L12.9251 18.2394L2.08853 26.6277ZM19.7304 17.7352L30.5674 26.1238C30.9602 25.6964 31.2 25.1262 31.2 24.5V8.91239L19.7304 17.7352Z" fill="black"/>
</g>
</svg>
