<svg width="25" height="25" viewBox="0 0 25 25" fill="none" xmlns="http://www.w3.org/2000/svg">
<path d="M12.502 21.5409C10.042 21.5409 9.75201 21.5279 8.79201 21.4859C8.04339 21.4613 7.30445 21.3091 6.60701 21.0359C5.40033 20.5663 4.44615 19.6117 3.97701 18.4049C3.71432 17.7049 3.57263 16.9654 3.55801 16.2179C3.50201 15.2599 3.50201 14.9459 3.50201 12.5049C3.50201 10.0379 3.51501 9.74988 3.55801 8.79488C3.57295 8.0484 3.71464 7.30989 3.97701 6.61088C4.44565 5.40241 5.40137 4.44706 6.61001 3.97888C7.30866 3.71509 8.04736 3.57303 8.79401 3.55888C9.74901 3.50488 10.063 3.50488 12.502 3.50488C14.982 3.50488 15.267 3.51788 16.212 3.55888C16.9606 3.57315 17.7013 3.71519 18.402 3.97888C19.6103 4.44759 20.5659 5.40276 21.035 6.61088C21.3021 7.32008 21.4446 8.07013 21.456 8.82788C21.512 9.78588 21.512 10.0989 21.512 12.5389C21.512 14.9789 21.498 15.2989 21.456 16.2459C21.4411 16.9941 21.2991 17.7343 21.036 18.4349C20.5657 19.6426 19.6101 20.5975 18.402 21.0669C17.7023 21.3291 16.9631 21.4707 16.216 21.4859C15.261 21.5409 14.948 21.5409 12.502 21.5409ZM12.468 5.08788C10.022 5.08788 9.76801 5.09988 8.81301 5.14288C8.243 5.15043 7.67849 5.25562 7.14401 5.45388C6.35477 5.75589 5.73024 6.37787 5.42501 7.16588C5.22523 7.70618 5.12002 8.27686 5.11401 8.85288C5.06101 9.82188 5.06101 10.0759 5.06101 12.5049C5.06101 14.9049 5.07001 15.1959 5.11401 16.1589C5.12297 16.7291 5.22811 17.2937 5.42501 17.8289C5.73069 18.6164 6.35511 19.2379 7.14401 19.5399C7.67813 19.7395 8.24287 19.8447 8.81301 19.8509C9.78101 19.9069 10.036 19.9069 12.468 19.9069C14.921 19.9069 15.175 19.8949 16.122 19.8509C16.6924 19.8439 17.2574 19.7387 17.792 19.5399C18.5765 19.2353 19.1969 18.6152 19.502 17.8309C19.7014 17.2901 19.8066 16.7192 19.813 16.1429H19.824C19.867 15.1869 19.867 14.9319 19.867 12.4889C19.867 10.0459 19.856 9.78888 19.813 8.83388C19.804 8.26433 19.6989 7.70039 19.502 7.16588C19.1976 6.38046 18.5771 5.75918 17.792 5.45388C17.2575 5.25462 16.6925 5.1494 16.122 5.14288C15.155 5.08788 14.902 5.08788 12.468 5.08788ZM12.502 17.1239C10.632 17.1251 8.94543 15.9996 8.22888 14.2723C7.51232 12.5451 7.90692 10.5562 9.22865 9.23334C10.5504 7.91047 12.5389 7.51415 14.2668 8.22921C15.9947 8.94428 17.1216 10.6299 17.122 12.4999C17.1193 15.0509 15.0531 17.1189 12.502 17.1239ZM12.502 9.49788C10.8452 9.49788 9.50201 10.841 9.50201 12.4979C9.50201 14.1547 10.8452 15.4979 12.502 15.4979C14.1589 15.4979 15.502 14.1547 15.502 12.4979C15.4982 10.8426 14.1573 9.50173 12.502 9.49788ZM17.302 8.78489C16.7074 8.78268 16.2269 8.29947 16.228 7.70489C16.2291 7.11031 16.7114 6.62889 17.306 6.62889C17.9006 6.62889 18.3829 7.1103 18.384 7.70488C18.3843 7.99174 18.2703 8.26691 18.0673 8.46956C17.8642 8.67222 17.5889 8.78568 17.302 8.78489Z" fill="#2E2E2E"/>
</svg>
