<svg width="32" height="33" viewBox="0 0 32 33" fill="none" xmlns="http://www.w3.org/2000/svg">
<g id="technology/phone-ringing">
<g id="Union">
<path fill-rule="evenodd" clip-rule="evenodd" d="M8.6 12.3H8.2C7.87828 19.0562 13.4438 24.6217 20.2 24.3V23.9C20.2 22.1327 21.6327 20.7 23.4 20.7H30V22.5C30 26.9183 26.4183 30.5 22 30.5C10.9543 30.5 2 21.5457 2 10.5C2 6.08172 5.58172 2.5 10 2.5H11.8V9.1C11.8 10.8673 10.3673 12.3 8.6 12.3ZM23.4 21.5H29.2V22.5C29.2 26.4765 25.9765 29.7 22 29.7C11.3961 29.7 2.8 21.1039 2.8 10.5C2.8 6.52355 6.02355 3.3 10 3.3H11V9.1C11 10.4255 9.92548 11.5 8.6 11.5H7.43719L7.40091 12.2619C7.05674 19.4895 13.0105 25.4433 20.2381 25.0991L21 25.0628V23.9C21 22.5745 22.0745 21.5 23.4 21.5Z" fill="black"/>
<path d="M20.8 3.3C25.4392 3.3 29.2 7.06081 29.2 11.7H30C30 6.61898 25.881 2.5 20.8 2.5V3.3Z" fill="black"/>
<path d="M20.8 5.7C24.1137 5.7 26.8 8.38629 26.8 11.7H27.6C27.6 7.94446 24.5555 4.9 20.8 4.9V5.7Z" fill="black"/>
<path d="M24.4 11.7C24.4 9.71178 22.7882 8.1 20.8 8.1V7.3C23.2301 7.3 25.2 9.26995 25.2 11.7H24.4Z" fill="black"/>
</g>
</g>
</svg>
