<svg width="81" height="80" viewBox="0 0 81 80" fill="none" xmlns="http://www.w3.org/2000/svg">
<path fill-rule="evenodd" clip-rule="evenodd" d="M40.5 55C42.1568 55 43.5 56.3432 43.5 58C43.5 59.6569 42.1568 61 40.5 61C38.8431 61 37.5 59.6569 37.5 58C37.5 56.3432 38.8431 55 40.5 55ZM41.5 58C41.5 57.4477 41.0522 57 40.5 57C39.9477 57 39.5 57.4477 39.5 58C39.5 58.5523 39.9477 59 40.5 59C41.0522 59 41.5 58.5523 41.5 58Z" fill="black"/>
<path fill-rule="evenodd" clip-rule="evenodd" d="M36.5 49C36.5 46.2386 34.2614 44 31.5 44C28.7385 44 26.5 46.2386 26.5 49C26.5 51.7614 28.7385 54 31.5 54C34.2614 54 36.5 51.7614 36.5 49ZM31.5 46C33.1568 46 34.5 47.3432 34.5 49C34.5 50.6569 33.1568 52 31.5 52C29.8431 52 28.5 50.6569 28.5 49C28.5 47.3432 29.8431 46 31.5 46Z" fill="black"/>
<path fill-rule="evenodd" clip-rule="evenodd" d="M56.5 54C60.3659 54 63.5 57.134 63.5 61C63.5 64.866 60.3659 68 56.5 68C52.634 68 49.5 64.866 49.5 61C49.5 57.134 52.634 54 56.5 54ZM61.5 61C61.5 58.2386 59.2614 56 56.5 56C53.7385 56 51.5 58.2386 51.5 61C51.5 63.7614 53.7385 66 56.5 66C59.2614 66 61.5 63.7614 61.5 61Z" fill="black"/>
<path fill-rule="evenodd" clip-rule="evenodd" d="M26.5 5H54.5V13H49.5V20.1242L74.1341 61.3865C77.7157 67.3855 73.3934 75 66.4066 75H14.5933C7.60648 75 3.2842 67.3855 6.86571 61.3865L31.5 20.1242V13H26.5V5ZM28.5 7V11H33.5V20.6758L26.1189 33.0391C32.6435 33.3606 36.4837 35.6168 40.4438 37.9434C40.8356 38.1736 41.2291 38.4048 41.626 38.6346C46.1117 41.2316 51.2764 43.8194 61.4194 43.991L47.5 20.6758V11H52.5V7H28.5ZM8.58296 62.4117L24.9464 35.003C31.6356 35.0943 35.2902 37.2388 39.4427 39.6754C39.8311 39.9034 40.2239 40.1338 40.6239 40.3654C45.4816 43.1778 51.1955 46 62.5 46C62.5388 46 62.5772 45.9978 62.615 45.9935L72.4169 62.4117C75.2025 67.0776 71.8408 73 66.4066 73H14.5933C9.15911 73 5.79733 67.0776 8.58296 62.4117Z" fill="black"/>
</svg>
